<svg version="1.1" id="Layer_1" xmlns:x="ns_extend;" xmlns:i="ns_ai;" xmlns:graph="ns_graphs;" xmlns="http://www.w3.org/2000/svg" xmlns:xlink="http://www.w3.org/1999/xlink" x="0px" y="0px" viewBox="0 0 623.4 91" style="enable-background:new 0 0 623.4 91;" xml:space="preserve">
 <style type="text/css">
  .st0{fill-rule:evenodd;clip-rule:evenodd;}
	.st1{fill-rule:evenodd;clip-rule:evenodd;fill:#62D84E;}
 </style>
 <metadata>
  <sfw xmlns="ns_sfw;">
   <slices>
   </slices>
   <sliceSourceBounds bottomLeftOrigin="true" height="91" width="623.4" x="-491.9" y="0.4">
   </sliceSourceBounds>
  </sfw>
 </metadata>
 <g>
  <path class="st0" d="M150,28c-6.3,0-12.4,2.2-17.2,6.2v-5.6h-15.7v61h16.3v-39c3.5-4.6,9-7.4,14.8-7.6c2.2-0.1,4.4,0.2,6.5,1V28.5
		C153.2,28.2,151.6,28,150,28">
  </path>
  <path class="st0" d="M7.9,71.1c4.7,3.9,10.6,6.1,16.7,6c4.4,0,7.8-2.1,7.8-5.2c0-9.2-29.5-5.9-29.5-25.6c0-11.7,11.3-19,23.3-19
		c7.3,0,14.5,2.2,20.6,6.2l-7.6,11.8c-3.4-2.6-7.4-4-11.7-4.1c-4.5,0-8.3,1.8-8.3,4.9c0,7.9,29.5,4.8,29.5,25.9
		C48.7,83.8,37.2,91,24.5,91C15.6,90.9,7.1,88,0,82.8L7.9,71.1z">
  </path>
  <path class="st0" d="M110.2,58.6c0-17-11.9-31.2-28.7-31.2c-18.1,0-29.6,14.8-29.6,31.8C51.2,76.1,64.2,90.3,81,91
		c0.9,0,1.8,0,2.7,0c9.5,0.1,18.6-3.9,25-10.9l-9.3-9.3c-3.9,4.3-9.5,6.9-15.3,7c-8.4,0.3-15.6-6.1-16.4-14.5h42.1
		C110.1,61.8,110.2,60.2,110.2,58.6z M68.4,51.3c1.2-6.2,6.7-10.7,13-10.7c6.1,0,11.3,4.6,12,10.7H68.4z">
  </path>
  <polygon class="st0" points="193.6,65.9 210.3,28.7 227.3,28.7 199.3,89.7 188,89.7 160,28.7 177,28.7 	">
  </polygon>
  <path class="st0" d="M240.9,0c5.8,0.1,10.4,4.9,10.3,10.7s-4.9,10.4-10.7,10.3c-5.7-0.1-10.3-4.8-10.3-10.5
		C230.3,4.7,235,0,240.7,0C240.8,0,240.9,0,240.9,0">
  </path>
  <rect x="232.8" y="28.7" width="16.3" height="61">
  </rect>
  <path class="st0" d="M316.5,77.2c-6.3,9-16.7,14.1-27.6,13.7c-17.6,0.4-32.1-13.4-32.6-31c-0.4-17.6,13.4-32.1,31-32.6
		c0.6,0,1.2,0,1.7,0c9.9-0.1,19.4,4.4,25.6,12.2L303,49.8c-3.3-4.5-8.5-7.2-14-7.3c-9,0-16.4,7.2-16.4,16.3c0,0.2,0,0.3,0,0.5
		c-0.3,8.9,6.7,16.3,15.6,16.6c0.4,0,0.8,0,1.2,0c5.9-0.1,11.3-3.1,14.5-8.1L316.5,77.2z">
  </path>
  <path class="st0" d="M375.7,80c-6.3,7.1-15.4,11.1-25,10.9c-16.8,0.8-31.1-12.2-31.8-29c0-0.9,0-1.8,0-2.7
		c0-17,11.5-31.8,29.6-31.8c16.8,0,28.7,14.2,28.7,31.2c0,1.6-0.1,3.1-0.4,4.7h-42.1c0.8,8.4,8,14.7,16.4,14.5
		c5.8-0.2,11.4-2.7,15.3-7L375.7,80z M360.5,51.3c-0.7-6.1-5.9-10.7-12-10.7c-6.4,0-11.8,4.5-13,10.7H360.5z">
  </path>
  <path class="st0" d="M383.7,89.7v-61h15.7v4.9c4.8-4,10.9-6.2,17.2-6.2c8.1,0,15.9,3.6,21.1,9.8c4.7,6.1,6.9,13.7,6.3,21.4v31.1
		h-16.3V57.3c0.5-4.2-0.9-8.3-3.6-11.5c-2.5-2.3-5.8-3.5-9.2-3.4c-5.8,0.2-11.2,2.9-14.8,7.6v39.7H383.7z">
  </path>
  <path class="st1" d="M485.8,27.4c-19.7,0-35.7,15.9-35.8,35.6c0,9.8,4,19.3,11.2,26c2.5,2.4,6.4,2.6,9.2,0.5c9-6.7,21.4-6.7,30.4,0
		c2.8,2.1,6.7,1.9,9.2-0.5c14.3-13.6,14.9-36.2,1.3-50.5C504.7,31.5,495.5,27.5,485.8,27.4 M485.6,80.9c-9.6,0.3-17.5-7.3-17.8-16.8
		c0-0.3,0-0.6,0-0.9c0-9.8,8-17.8,17.8-17.8c9.8,0,17.8,8,17.8,17.8c0.3,9.6-7.3,17.5-16.8,17.8C486.2,80.9,485.9,80.9,485.6,80.9">
  </path>
  <polygon class="st0" points="553.4,89.7 541.3,89.7 517.1,28.7 533.3,28.7 546.6,63.5 559.6,28.7 573.2,28.7 586.1,63.5 
		599.5,28.7 615.8,28.7 591.6,89.7 579.5,89.7 566.4,54.9 	">
  </polygon>
  <path d="M616,82.8h-1.4v2.6h-1.2v-7.1h2.9c1.3,0,2.3,1,2.3,2.3c0,0,0,0,0,0c0,0.9-0.6,1.7-1.4,2.1l1.6,2.8h-1.3L616,82.8z
		 M614.6,81.8h1.7c0.7,0,1.2-0.5,1.2-1.2s-0.5-1.2-1.2-1.2h-1.7L614.6,81.8z">
  </path>
  <path d="M615.8,75.4c3.6,0,6.6,2.9,6.6,6.6c0,3.6-2.9,6.6-6.6,6.6c-3.6,0-6.6-2.9-6.6-6.6c0,0,0,0,0,0
		C609.3,78.4,612.2,75.4,615.8,75.4 M615.8,74.4c-4.2,0-7.6,3.4-7.6,7.6s3.4,7.6,7.6,7.6c4.2,0,7.6-3.4,7.6-7.6
		C623.4,77.8,620,74.4,615.8,74.4L615.8,74.4z">
  </path>
 </g>
</svg>